<mxfile host="Electron" agent="Mozilla/5.0 (Windows NT 10.0; Win64; x64) AppleWebKit/537.36 (KHTML, like Gecko) draw.io/28.1.2 Chrome/138.0.7204.243 Electron/37.4.0 Safari/537.36" version="28.1.2">
  <diagram name="Página-1" id="YbEsryXh_7t6vPxzy6sB">
    <mxGraphModel dx="1426" dy="841" grid="1" gridSize="10" guides="1" tooltips="1" connect="1" arrows="1" fold="1" page="1" pageScale="1" pageWidth="827" pageHeight="1169" math="0" shadow="0">
      <root>
        <mxCell id="0" />
        <mxCell id="1" parent="0" />
        <mxCell id="z4DpApWJzl8NDFuBkj6w-8" value="" style="rounded=1;whiteSpace=wrap;html=1;fillColor=#fff2cc;strokeColor=#d6b656;" parent="1" vertex="1">
          <mxGeometry x="214" y="20" width="120" height="60" as="geometry" />
        </mxCell>
        <mxCell id="z4DpApWJzl8NDFuBkj6w-9" value="" style="rounded=1;whiteSpace=wrap;html=1;fillColor=#e1d5e7;strokeColor=#9673a6;" parent="1" vertex="1">
          <mxGeometry x="494" y="20" width="120" height="60" as="geometry" />
        </mxCell>
        <mxCell id="z4DpApWJzl8NDFuBkj6w-12" value="" style="endArrow=none;dashed=1;html=1;rounded=0;entryX=0.5;entryY=1;entryDx=0;entryDy=0;" parent="1" target="z4DpApWJzl8NDFuBkj6w-8" edge="1">
          <mxGeometry width="50" height="50" relative="1" as="geometry">
            <mxPoint x="274" y="440" as="sourcePoint" />
            <mxPoint x="614" y="160" as="targetPoint" />
          </mxGeometry>
        </mxCell>
        <mxCell id="z4DpApWJzl8NDFuBkj6w-13" value="" style="endArrow=none;dashed=1;html=1;rounded=0;entryX=0.5;entryY=1;entryDx=0;entryDy=0;" parent="1" target="z4DpApWJzl8NDFuBkj6w-9" edge="1">
          <mxGeometry width="50" height="50" relative="1" as="geometry">
            <mxPoint x="554" y="440" as="sourcePoint" />
            <mxPoint x="614" y="160" as="targetPoint" />
          </mxGeometry>
        </mxCell>
        <mxCell id="z4DpApWJzl8NDFuBkj6w-15" value="SERVIDOR A" style="text;strokeColor=none;fillColor=none;align=left;verticalAlign=middle;spacingLeft=4;spacingRight=4;overflow=hidden;points=[[0,0.5],[1,0.5]];portConstraint=eastwest;rotatable=0;whiteSpace=wrap;html=1;" parent="1" vertex="1">
          <mxGeometry x="231.5" y="35" width="85" height="30" as="geometry" />
        </mxCell>
        <mxCell id="z4DpApWJzl8NDFuBkj6w-17" value="SERVIDOR B" style="text;html=1;align=center;verticalAlign=middle;whiteSpace=wrap;rounded=0;" parent="1" vertex="1">
          <mxGeometry x="514" y="35" width="80" height="30" as="geometry" />
        </mxCell>
        <mxCell id="pxDzyljOZnjlQjA-ABAl-2" value="" style="endArrow=classic;html=1;rounded=0;" edge="1" parent="1">
          <mxGeometry width="50" height="50" relative="1" as="geometry">
            <mxPoint x="274" y="160" as="sourcePoint" />
            <mxPoint x="554" y="160" as="targetPoint" />
          </mxGeometry>
        </mxCell>
        <mxCell id="pxDzyljOZnjlQjA-ABAl-3" value="&lt;span style=&quot;color: rgb(29, 33, 37); font-family: Poppins; font-size: 15px; text-align: left; background-color: rgb(248, 249, 250);&quot;&gt;{&quot;SERVER_ID&quot;: &quot;UUID_B&quot;, &quot;TASK&quot;: &quot;HEARTBEAT&quot;}&lt;/span&gt;" style="text;html=1;align=center;verticalAlign=middle;whiteSpace=wrap;rounded=0;" vertex="1" parent="1">
          <mxGeometry x="274" y="120" width="280" height="30" as="geometry" />
        </mxCell>
        <mxCell id="pxDzyljOZnjlQjA-ABAl-4" value="" style="endArrow=classic;html=1;rounded=0;" edge="1" parent="1">
          <mxGeometry width="50" height="50" relative="1" as="geometry">
            <mxPoint x="554" y="240" as="sourcePoint" />
            <mxPoint x="274" y="240" as="targetPoint" />
          </mxGeometry>
        </mxCell>
        <mxCell id="pxDzyljOZnjlQjA-ABAl-5" value="&#xa;&lt;span style=&quot;color: rgb(29, 33, 37); font-family: Poppins; font-size: 15px; font-style: normal; font-variant-ligatures: normal; font-variant-caps: normal; font-weight: 400; letter-spacing: normal; orphans: 2; text-align: left; text-indent: 0px; text-transform: none; widows: 2; word-spacing: 0px; -webkit-text-stroke-width: 0px; white-space: normal; background-color: rgb(248, 249, 250); text-decoration-thickness: initial; text-decoration-style: initial; text-decoration-color: initial; display: inline !important; float: none;&quot;&gt;{&quot;SERVER_ID&quot;: &quot;UUID_B&quot; ,&quot;TASK&quot;:&quot;HEARTBEAT&quot;, “RESPONSE”:”ALIVE”}&lt;/span&gt;&#xa;&#xa;" style="text;html=1;align=center;verticalAlign=middle;whiteSpace=wrap;rounded=0;" vertex="1" parent="1">
          <mxGeometry x="274" y="190" width="280" height="50" as="geometry" />
        </mxCell>
        <mxCell id="pxDzyljOZnjlQjA-ABAl-7" value="&lt;span style=&quot;color: rgb(29, 33, 37); font-family: Poppins; font-size: 15px; text-align: left; background-color: rgb(248, 249, 250);&quot;&gt;{&quot;SERVER_ID&quot;: &quot;UUID_B&quot;, &quot;TASK&quot;: &quot;HEARTBEAT&quot;}&lt;/span&gt;" style="text;html=1;align=center;verticalAlign=middle;whiteSpace=wrap;rounded=0;" vertex="1" parent="1">
          <mxGeometry x="274" y="280" width="280" height="30" as="geometry" />
        </mxCell>
        <mxCell id="pxDzyljOZnjlQjA-ABAl-8" value="" style="endArrow=classic;html=1;rounded=0;" edge="1" parent="1">
          <mxGeometry width="50" height="50" relative="1" as="geometry">
            <mxPoint x="554" y="320" as="sourcePoint" />
            <mxPoint x="274" y="320" as="targetPoint" />
          </mxGeometry>
        </mxCell>
        <mxCell id="pxDzyljOZnjlQjA-ABAl-9" value="&#xa;&lt;span style=&quot;color: rgb(29, 33, 37); font-family: Poppins; font-size: 15px; font-style: normal; font-variant-ligatures: normal; font-variant-caps: normal; font-weight: 400; letter-spacing: normal; orphans: 2; text-align: left; text-indent: 0px; text-transform: none; widows: 2; word-spacing: 0px; -webkit-text-stroke-width: 0px; white-space: normal; background-color: rgb(248, 249, 250); text-decoration-thickness: initial; text-decoration-style: initial; text-decoration-color: initial; display: inline !important; float: none;&quot;&gt;{&quot;SERVER_ID&quot;: &quot;UUID_B&quot; ,&quot;TASK&quot;:&quot;HEARTBEAT&quot;, “RESPONSE”:”ALIVE”}&lt;/span&gt;&#xa;&#xa;" style="text;html=1;align=center;verticalAlign=middle;whiteSpace=wrap;rounded=0;" vertex="1" parent="1">
          <mxGeometry x="274" y="350" width="280" height="50" as="geometry" />
        </mxCell>
        <mxCell id="pxDzyljOZnjlQjA-ABAl-10" value="" style="endArrow=classic;html=1;rounded=0;entryX=1;entryY=1;entryDx=0;entryDy=0;exitX=0;exitY=1;exitDx=0;exitDy=0;" edge="1" parent="1" source="pxDzyljOZnjlQjA-ABAl-9" target="pxDzyljOZnjlQjA-ABAl-9">
          <mxGeometry width="50" height="50" relative="1" as="geometry">
            <mxPoint x="274" y="430" as="sourcePoint" />
            <mxPoint x="554" y="210" as="targetPoint" />
          </mxGeometry>
        </mxCell>
      </root>
    </mxGraphModel>
  </diagram>
</mxfile>
